<?xml version="1.0" encoding="utf-8" standalone="no"?>
<!DOCTYPE svg PUBLIC "-//W3C//DTD SVG 1.1//EN"
  "http://www.w3.org/Graphics/SVG/1.1/DTD/svg11.dtd">
<svg xmlns:xlink="http://www.w3.org/1999/xlink" width="722.132703pt" height="420.726016pt" viewBox="0 0 722.132703 420.726016" xmlns="http://www.w3.org/2000/svg" version="1.1">
 <metadata>
  <rdf:RDF xmlns:dc="http://purl.org/dc/elements/1.1/" xmlns:cc="http://creativecommons.org/ns#" xmlns:rdf="http://www.w3.org/1999/02/22-rdf-syntax-ns#">
   <cc:Work>
    <dc:type rdf:resource="http://purl.org/dc/dcmitype/StillImage"/>
    <dc:date>2026-07-20T23:29:39.473126</dc:date>
    <dc:format>image/svg+xml</dc:format>
    <dc:creator>
     <cc:Agent>
      <dc:title>Matplotlib v3.10.8, https://matplotlib.org/</dc:title>
     </cc:Agent>
    </dc:creator>
   </cc:Work>
  </rdf:RDF>
 </metadata>
 <defs>
  <style type="text/css">*{stroke-linejoin: round; stroke-linecap: butt}</style>
 </defs>
 <g id="figure_1">
  <g id="patch_1">
   <path d="M -0 420.726016 
L 722.132703 420.726016 
L 722.132703 0 
L -0 0 
z
" style="fill: #ffffff"/>
  </g>
  <g id="axes_1">
   <g id="patch_2">
    <path d="M 38.420703 375.48 
L 714.932703 375.48 
L 714.932703 85.32 
L 38.420703 85.32 
z
" style="fill: #ffffff"/>
   </g>
   <g id="matplotlib.axis_1">
    <g id="xtick_1">
     <g id="line2d_1">
      <defs>
       <path id="mabcb1ad206" d="M 0 0 
L 0 3.5 
" style="stroke: #64748b; stroke-width: 0.8"/>
      </defs>
      <g>
       <use xlink:href="#mabcb1ad206" x="118.990568" y="375.48" style="fill: #64748b; stroke: #64748b; stroke-width: 0.8"/>
      </g>
     </g>
     <g id="text_1">
      <text style="font-size: 10.5px; font-family: 'Latin Modern Math', 'SimSun'; text-anchor: middle; fill: #64748b" x="118.990568" y="389.767656" transform="rotate(-0 118.990568 389.767656)">P90</text>
     </g>
    </g>
    <g id="xtick_2">
     <g id="line2d_2">
      <g>
       <use xlink:href="#mabcb1ad206" x="290.781325" y="375.48" style="fill: #64748b; stroke: #64748b; stroke-width: 0.8"/>
      </g>
     </g>
     <g id="text_2">
      <text style="font-size: 10.5px; font-family: 'Latin Modern Math', 'SimSun'; text-anchor: middle; fill: #64748b" x="290.781325" y="389.767656" transform="rotate(-0 290.781325 389.767656)">P95</text>
     </g>
    </g>
    <g id="xtick_3">
     <g id="line2d_3">
      <g>
       <use xlink:href="#mabcb1ad206" x="462.572081" y="375.48" style="fill: #64748b; stroke: #64748b; stroke-width: 0.8"/>
      </g>
     </g>
     <g id="text_3">
      <text style="font-size: 10.5px; font-family: 'Latin Modern Math', 'SimSun'; text-anchor: middle; fill: #64748b" x="462.572081" y="389.767656" transform="rotate(-0 462.572081 389.767656)">P97.5</text>
     </g>
    </g>
    <g id="xtick_4">
     <g id="line2d_4">
      <g>
       <use xlink:href="#mabcb1ad206" x="634.362838" y="375.48" style="fill: #64748b; stroke: #64748b; stroke-width: 0.8"/>
      </g>
     </g>
     <g id="text_4">
      <text style="font-size: 10.5px; font-family: 'Latin Modern Math', 'SimSun'; text-anchor: middle; fill: #64748b" x="634.362838" y="389.767656" transform="rotate(-0 634.362838 389.767656)">P100</text>
     </g>
    </g>
    <g id="text_5">
     <text style="font-size: 10.5px; font-family: 'Latin Modern Math', 'SimSun'; text-anchor: middle; fill: #64748b" x="376.676703" y="411.488359" transform="rotate(-0 376.676703 411.488359)">供货预测分位数</text>
    </g>
   </g>
   <g id="matplotlib.axis_2">
    <g id="ytick_1">
     <g id="line2d_5">
      <path d="M 38.420703 375.48 
L 714.932703 375.48 
" clip-path="url(#p749ff39997)" style="fill: none; stroke: #dce5ef; stroke-opacity: 0.72; stroke-width: 0.8; stroke-linecap: square"/>
     </g>
     <g id="line2d_6">
      <defs>
       <path id="m4407cfc0cf" d="M 0 0 
L -3.5 0 
" style="stroke: #64748b; stroke-width: 0.8"/>
      </defs>
      <g>
       <use xlink:href="#m4407cfc0cf" x="38.420703" y="375.48" style="fill: #64748b; stroke: #64748b; stroke-width: 0.8"/>
      </g>
     </g>
     <g id="text_6">
      <text style="font-size: 10.5px; font-family: 'Latin Modern Math', 'SimSun'; text-anchor: end; fill: #64748b" x="31.420703" y="379.123828" transform="rotate(-0 31.420703 379.123828)">0</text>
     </g>
    </g>
    <g id="ytick_2">
     <g id="line2d_7">
      <path d="M 38.420703 325.88 
L 714.932703 325.88 
" clip-path="url(#p749ff39997)" style="fill: none; stroke: #dce5ef; stroke-opacity: 0.72; stroke-width: 0.8; stroke-linecap: square"/>
     </g>
     <g id="line2d_8">
      <g>
       <use xlink:href="#m4407cfc0cf" x="38.420703" y="325.88" style="fill: #64748b; stroke: #64748b; stroke-width: 0.8"/>
      </g>
     </g>
     <g id="text_7">
      <text style="font-size: 10.5px; font-family: 'Latin Modern Math', 'SimSun'; text-anchor: end; fill: #64748b" x="31.420703" y="329.523828" transform="rotate(-0 31.420703 329.523828)">2</text>
     </g>
    </g>
    <g id="ytick_3">
     <g id="line2d_9">
      <path d="M 38.420703 276.28 
L 714.932703 276.28 
" clip-path="url(#p749ff39997)" style="fill: none; stroke: #dce5ef; stroke-opacity: 0.72; stroke-width: 0.8; stroke-linecap: square"/>
     </g>
     <g id="line2d_10">
      <g>
       <use xlink:href="#m4407cfc0cf" x="38.420703" y="276.28" style="fill: #64748b; stroke: #64748b; stroke-width: 0.8"/>
      </g>
     </g>
     <g id="text_8">
      <text style="font-size: 10.5px; font-family: 'Latin Modern Math', 'SimSun'; text-anchor: end; fill: #64748b" x="31.420703" y="279.923828" transform="rotate(-0 31.420703 279.923828)">4</text>
     </g>
    </g>
    <g id="ytick_4">
     <g id="line2d_11">
      <path d="M 38.420703 226.68 
L 714.932703 226.68 
" clip-path="url(#p749ff39997)" style="fill: none; stroke: #dce5ef; stroke-opacity: 0.72; stroke-width: 0.8; stroke-linecap: square"/>
     </g>
     <g id="line2d_12">
      <g>
       <use xlink:href="#m4407cfc0cf" x="38.420703" y="226.68" style="fill: #64748b; stroke: #64748b; stroke-width: 0.8"/>
      </g>
     </g>
     <g id="text_9">
      <text style="font-size: 10.5px; font-family: 'Latin Modern Math', 'SimSun'; text-anchor: end; fill: #64748b" x="31.420703" y="230.323828" transform="rotate(-0 31.420703 230.323828)">6</text>
     </g>
    </g>
    <g id="ytick_5">
     <g id="line2d_13">
      <path d="M 38.420703 177.08 
L 714.932703 177.08 
" clip-path="url(#p749ff39997)" style="fill: none; stroke: #dce5ef; stroke-opacity: 0.72; stroke-width: 0.8; stroke-linecap: square"/>
     </g>
     <g id="line2d_14">
      <g>
       <use xlink:href="#m4407cfc0cf" x="38.420703" y="177.08" style="fill: #64748b; stroke: #64748b; stroke-width: 0.8"/>
      </g>
     </g>
     <g id="text_10">
      <text style="font-size: 10.5px; font-family: 'Latin Modern Math', 'SimSun'; text-anchor: end; fill: #64748b" x="31.420703" y="180.723828" transform="rotate(-0 31.420703 180.723828)">8</text>
     </g>
    </g>
    <g id="ytick_6">
     <g id="line2d_15">
      <path d="M 38.420703 127.48 
L 714.932703 127.48 
" clip-path="url(#p749ff39997)" style="fill: none; stroke: #dce5ef; stroke-opacity: 0.72; stroke-width: 0.8; stroke-linecap: square"/>
     </g>
     <g id="line2d_16">
      <g>
       <use xlink:href="#m4407cfc0cf" x="38.420703" y="127.48" style="fill: #64748b; stroke: #64748b; stroke-width: 0.8"/>
      </g>
     </g>
     <g id="text_11">
      <text style="font-size: 10.5px; font-family: 'Latin Modern Math', 'SimSun'; text-anchor: end; fill: #64748b" x="31.420703" y="131.123828" transform="rotate(-0 31.420703 131.123828)">10</text>
     </g>
    </g>
    <g id="text_12">
     <text style="font-size: 10.5px; font-family: 'Latin Modern Math', 'SimSun'; text-anchor: middle; fill: #64748b" x="14.883047" y="230.4" transform="rotate(-90 14.883047 230.4)">最少供应商数量（家）</text>
    </g>
   </g>
   <g id="patch_3">
    <path d="M 69.171249 375.48 
L 168.809887 375.48 
L 168.809887 375.48 
L 69.171249 375.48 
z
" clip-path="url(#p749ff39997)" style="fill: #2563eb; stroke: #ffffff; stroke-width: 1.5; stroke-linejoin: miter"/>
   </g>
   <g id="patch_4">
    <path d="M 240.962005 375.48 
L 340.600644 375.48 
L 340.600644 325.88 
L 240.962005 325.88 
z
" clip-path="url(#p749ff39997)" style="fill: #2563eb; stroke: #ffffff; stroke-width: 1.5; stroke-linejoin: miter"/>
   </g>
   <g id="patch_5">
    <path d="M 412.752762 375.48 
L 512.391401 375.48 
L 512.391401 325.88 
L 412.752762 325.88 
z
" clip-path="url(#p749ff39997)" style="fill: #2563eb; stroke: #ffffff; stroke-width: 1.5; stroke-linejoin: miter"/>
   </g>
   <g id="patch_6">
    <path d="M 584.543519 375.48 
L 684.182158 375.48 
L 684.182158 325.88 
L 584.543519 325.88 
z
" clip-path="url(#p749ff39997)" style="fill: #2563eb; stroke: #ffffff; stroke-width: 1.5; stroke-linejoin: miter"/>
   </g>
   <g id="patch_7">
    <path d="M 69.171249 375.48 
L 168.809887 375.48 
L 168.809887 375.48 
L 69.171249 375.48 
z
" clip-path="url(#p749ff39997)" style="fill: #0f9f7a; stroke: #ffffff; stroke-width: 1.5; stroke-linejoin: miter"/>
   </g>
   <g id="patch_8">
    <path d="M 240.962005 325.88 
L 340.600644 325.88 
L 340.600644 276.28 
L 240.962005 276.28 
z
" clip-path="url(#p749ff39997)" style="fill: #0f9f7a; stroke: #ffffff; stroke-width: 1.5; stroke-linejoin: miter"/>
   </g>
   <g id="patch_9">
    <path d="M 412.752762 325.88 
L 512.391401 325.88 
L 512.391401 276.28 
L 412.752762 276.28 
z
" clip-path="url(#p749ff39997)" style="fill: #0f9f7a; stroke: #ffffff; stroke-width: 1.5; stroke-linejoin: miter"/>
   </g>
   <g id="patch_10">
    <path d="M 584.543519 325.88 
L 684.182158 325.88 
L 684.182158 276.28 
L 584.543519 276.28 
z
" clip-path="url(#p749ff39997)" style="fill: #0f9f7a; stroke: #ffffff; stroke-width: 1.5; stroke-linejoin: miter"/>
   </g>
   <g id="patch_11">
    <path d="M 69.171249 375.48 
L 168.809887 375.48 
L 168.809887 375.48 
L 69.171249 375.48 
z
" clip-path="url(#p749ff39997)" style="fill: #f59e0b; stroke: #ffffff; stroke-width: 1.5; stroke-linejoin: miter"/>
   </g>
   <g id="patch_12">
    <path d="M 240.962005 276.28 
L 340.600644 276.28 
L 340.600644 127.48 
L 240.962005 127.48 
z
" clip-path="url(#p749ff39997)" style="fill: #f59e0b; stroke: #ffffff; stroke-width: 1.5; stroke-linejoin: miter"/>
   </g>
   <g id="patch_13">
    <path d="M 412.752762 276.28 
L 512.391401 276.28 
L 512.391401 177.08 
L 412.752762 177.08 
z
" clip-path="url(#p749ff39997)" style="fill: #f59e0b; stroke: #ffffff; stroke-width: 1.5; stroke-linejoin: miter"/>
   </g>
   <g id="patch_14">
    <path d="M 584.543519 276.28 
L 684.182158 276.28 
L 684.182158 226.68 
L 584.543519 226.68 
z
" clip-path="url(#p749ff39997)" style="fill: #f59e0b; stroke: #ffffff; stroke-width: 1.5; stroke-linejoin: miter"/>
   </g>
   <g id="patch_15">
    <path d="M 69.171249 375.48 
L 168.809887 375.48 
L 168.809887 323.4 
L 69.171249 323.4 
z
" clip-path="url(#p749ff39997)" style="fill: url(#h63d307adec); stroke: #e5484d; stroke-width: 1.2; stroke-linejoin: miter"/>
   </g>
   <g id="patch_16">
    <path d="M 38.420703 375.48 
L 38.420703 85.32 
" style="fill: none; stroke: #dce5ef; stroke-width: 0.8; stroke-linejoin: miter; stroke-linecap: square"/>
   </g>
   <g id="patch_17">
    <path d="M 38.420703 375.48 
L 714.932703 375.48 
" style="fill: none; stroke: #dce5ef; stroke-width: 0.8; stroke-linejoin: miter; stroke-linecap: square"/>
   </g>
   <g id="text_13">
    <text style="font-weight: 700; font-size: 11px; font-family: 'Latin Modern Math', 'SimSun'; text-anchor: middle; fill: #ffffff" x="290.781325" y="353.43" transform="rotate(-0 290.781325 353.43)">2</text>
   </g>
   <g id="text_14">
    <text style="font-weight: 700; font-size: 11px; font-family: 'Latin Modern Math', 'SimSun'; text-anchor: middle; fill: #ffffff" x="462.572081" y="353.43" transform="rotate(-0 462.572081 353.43)">2</text>
   </g>
   <g id="text_15">
    <text style="font-weight: 700; font-size: 11px; font-family: 'Latin Modern Math', 'SimSun'; text-anchor: middle; fill: #ffffff" x="634.362838" y="353.43" transform="rotate(-0 634.362838 353.43)">2</text>
   </g>
   <g id="text_16">
    <text style="font-weight: 700; font-size: 11px; font-family: 'Latin Modern Math', 'SimSun'; text-anchor: middle; fill: #ffffff" x="290.781325" y="303.83" transform="rotate(-0 290.781325 303.83)">2</text>
   </g>
   <g id="text_17">
    <text style="font-weight: 700; font-size: 11px; font-family: 'Latin Modern Math', 'SimSun'; text-anchor: middle; fill: #ffffff" x="462.572081" y="303.83" transform="rotate(-0 462.572081 303.83)">2</text>
   </g>
   <g id="text_18">
    <text style="font-weight: 700; font-size: 11px; font-family: 'Latin Modern Math', 'SimSun'; text-anchor: middle; fill: #ffffff" x="634.362838" y="303.83" transform="rotate(-0 634.362838 303.83)">2</text>
   </g>
   <g id="text_19">
    <text style="font-weight: 700; font-size: 11px; font-family: 'Latin Modern Math', 'SimSun'; text-anchor: middle; fill: #ffffff" x="290.781325" y="204.63" transform="rotate(-0 290.781325 204.63)">6</text>
   </g>
   <g id="text_20">
    <text style="font-weight: 700; font-size: 11px; font-family: 'Latin Modern Math', 'SimSun'; text-anchor: middle; fill: #ffffff" x="462.572081" y="229.43" transform="rotate(-0 462.572081 229.43)">4</text>
   </g>
   <g id="text_21">
    <text style="font-weight: 700; font-size: 11px; font-family: 'Latin Modern Math', 'SimSun'; text-anchor: middle; fill: #ffffff" x="634.362838" y="254.23" transform="rotate(-0 634.362838 254.23)">2</text>
   </g>
   <g id="text_22">
    <text style="font-size: 9.5px; font-family: 'Latin Modern Math', 'SimSun'; fill: #e5484d" transform="translate(104.740568 299.16852)">不可行</text>
    <text style="font-size: 9.5px; font-family: 'Latin Modern Math', 'SimSun'; fill: #e5484d" transform="translate(90.300568 310.396406)">B 类能力不足</text>
   </g>
   <g id="text_23">
    <text style="font-weight: 600; font-size: 10.5px; font-family: 'Latin Modern Math', 'SimSun'; text-anchor: middle; fill: #172033" x="290.781325" y="116.762344" transform="rotate(-0 290.781325 116.762344)">共 10 家</text>
   </g>
   <g id="text_24">
    <text style="font-weight: 600; font-size: 10.5px; font-family: 'Latin Modern Math', 'SimSun'; text-anchor: middle; fill: #172033" x="462.572081" y="166.362344" transform="rotate(-0 462.572081 166.362344)">共 8 家</text>
   </g>
   <g id="text_25">
    <text style="font-weight: 600; font-size: 10.5px; font-family: 'Latin Modern Math', 'SimSun'; text-anchor: middle; fill: #172033" x="634.362838" y="215.962344" transform="rotate(-0 634.362838 215.962344)">共 6 家</text>
   </g>
   <g id="legend_1">
    <g id="patch_18">
     <path d="M 514.633719 79.158216 
L 535.633719 79.158216 
L 535.633719 71.808216 
L 514.633719 71.808216 
z
" style="fill: #2563eb; stroke: #ffffff; stroke-width: 1.5; stroke-linejoin: miter"/>
    </g>
    <g id="text_26">
     <text style="font-size: 10.5px; font-family: 'Latin Modern Math', 'SimSun'; text-anchor: start; fill: #172033" x="544.033719" y="79.158216" transform="rotate(-0 544.033719 79.158216)">A 类</text>
    </g>
    <g id="patch_19">
     <path d="M 584.795047 79.158216 
L 605.795047 79.158216 
L 605.795047 71.808216 
L 584.795047 71.808216 
z
" style="fill: #0f9f7a; stroke: #ffffff; stroke-width: 1.5; stroke-linejoin: miter"/>
    </g>
    <g id="text_27">
     <text style="font-size: 10.5px; font-family: 'Latin Modern Math', 'SimSun'; text-anchor: start; fill: #172033" x="614.195047" y="79.158216" transform="rotate(-0 614.195047 79.158216)">B 类</text>
    </g>
    <g id="patch_20">
     <path d="M 654.515047 79.158216 
L 675.515047 79.158216 
L 675.515047 71.808216 
L 654.515047 71.808216 
z
" style="fill: #f59e0b; stroke: #ffffff; stroke-width: 1.5; stroke-linejoin: miter"/>
    </g>
    <g id="text_28">
     <text style="font-size: 10.5px; font-family: 'Latin Modern Math', 'SimSun'; text-anchor: start; fill: #172033" x="683.915047" y="79.158216" transform="rotate(-0 683.915047 79.158216)">C 类</text>
    </g>
   </g>
  </g>
  <g id="text_29">
   <text style="font-weight: 600; font-size: 20px; font-family: 'Latin Modern Math', 'SimSun'; text-anchor: start; fill: #172033" x="30.644703" y="21.9125" transform="rotate(-0 30.644703 21.9125)">供货预测水平改变最少供应商结构</text>
  </g>
  <g id="text_30">
   <text style="font-size: 10.5px; font-family: 'Latin Modern Math', 'SimSun'; text-anchor: start; fill: #64748b" x="30.644703" y="33.984" transform="rotate(-0 30.644703 33.984)">较高的供货分位数提高单家供应能力，C 类供应商数量由 6 家降至 2 家</text>
  </g>
 </g>
 <defs>
  <clipPath id="p749ff39997">
   <rect x="38.420703" y="85.32" width="676.512" height="290.16"/>
  </clipPath>
 </defs>
 <defs>
  <pattern id="h63d307adec" patternUnits="userSpaceOnUse" x="0" y="0" width="72" height="72">
   <rect x="0" y="0" width="73" height="73" fill="#f7fafc"/>
   <path d="M -36 36 
L 36 -36 
M -32 40 
L 40 -32 
M -28 44 
L 44 -28 
M -24 48 
L 48 -24 
M -20 52 
L 52 -20 
M -16 56 
L 56 -16 
M -12 60 
L 60 -12 
M -8 64 
L 64 -8 
M -4 68 
L 68 -4 
M 0 72 
L 72 0 
M 4 76 
L 76 4 
M 8 80 
L 80 8 
M 12 84 
L 84 12 
M 16 88 
L 88 16 
M 20 92 
L 92 20 
M 24 96 
L 96 24 
M 28 100 
L 100 28 
M 32 104 
L 104 32 
M 36 108 
L 108 36 
" style="fill: #e5484d; stroke: #e5484d; stroke-width: 1.0; stroke-linecap: butt; stroke-linejoin: miter"/>
  </pattern>
 </defs>
</svg>
