<?xml version="1.0" encoding="utf-8" standalone="no"?>
<!DOCTYPE svg PUBLIC "-//W3C//DTD SVG 1.1//EN"
  "http://www.w3.org/Graphics/SVG/1.1/DTD/svg11.dtd">
<svg xmlns:xlink="http://www.w3.org/1999/xlink" width="727.341688pt" height="444.690562pt" viewBox="0 0 727.341688 444.690562" xmlns="http://www.w3.org/2000/svg" version="1.1">
 <metadata>
  <rdf:RDF xmlns:dc="http://purl.org/dc/elements/1.1/" xmlns:cc="http://creativecommons.org/ns#" xmlns:rdf="http://www.w3.org/1999/02/22-rdf-syntax-ns#">
   <cc:Work>
    <dc:type rdf:resource="http://purl.org/dc/dcmitype/StillImage"/>
    <dc:date>2026-07-21T21:33:58.182277</dc:date>
    <dc:format>image/svg+xml</dc:format>
    <dc:creator>
     <cc:Agent>
      <dc:title>Matplotlib v3.10.8, https://matplotlib.org/</dc:title>
     </cc:Agent>
    </dc:creator>
   </cc:Work>
  </rdf:RDF>
 </metadata>
 <defs>
  <style type="text/css">*{stroke-linejoin: round; stroke-linecap: butt}</style>
 </defs>
 <g id="figure_1">
  <g id="patch_1">
   <path d="M 0 444.690562 
L 727.341687 444.690562 
L 727.341687 0 
L 0 0 
z
" style="fill: #ffffff"/>
  </g>
  <g id="axes_1">
   <g id="patch_2">
    <path d="M 43.629687 382.752 
L 720.141687 382.752 
L 720.141687 87.84 
L 43.629687 87.84 
z
" style="fill: #ffffff"/>
   </g>
   <g id="matplotlib.axis_1">
    <g id="xtick_1">
     <g id="line2d_1">
      <path d="M 67.366951 382.752 
L 67.366951 87.84 
" clip-path="url(#p4055576ad3)" style="fill: none; stroke: #dce5ef; stroke-opacity: 0.72; stroke-width: 0.8; stroke-linecap: square"/>
     </g>
     <g id="line2d_2">
      <defs>
       <path id="m39dfad9136" d="M 0 0 
L 0 3.5 
" style="stroke: #64748b; stroke-width: 0.8"/>
      </defs>
      <g>
       <use xlink:href="#m39dfad9136" x="67.366951" y="382.752" style="fill: #64748b; stroke: #64748b; stroke-width: 0.8"/>
      </g>
     </g>
     <g id="text_1">
      <text style="font-size: 10.5px; font-family: 'Latin Modern Math', 'SimSun'; text-anchor: middle; fill: #64748b" x="67.366951" y="397.039656" transform="rotate(-0 67.366951 397.039656)">95.0%</text>
     </g>
    </g>
    <g id="xtick_2">
     <g id="line2d_3">
      <path d="M 186.053266 382.752 
L 186.053266 87.84 
" clip-path="url(#p4055576ad3)" style="fill: none; stroke: #dce5ef; stroke-opacity: 0.72; stroke-width: 0.8; stroke-linecap: square"/>
     </g>
     <g id="line2d_4">
      <g>
       <use xlink:href="#m39dfad9136" x="186.053266" y="382.752" style="fill: #64748b; stroke: #64748b; stroke-width: 0.8"/>
      </g>
     </g>
     <g id="text_2">
      <text style="font-size: 10.5px; font-family: 'Latin Modern Math', 'SimSun'; text-anchor: middle; fill: #64748b" x="186.053266" y="397.039656" transform="rotate(-0 186.053266 397.039656)">96.0%</text>
     </g>
    </g>
    <g id="xtick_3">
     <g id="line2d_5">
      <path d="M 304.739582 382.752 
L 304.739582 87.84 
" clip-path="url(#p4055576ad3)" style="fill: none; stroke: #dce5ef; stroke-opacity: 0.72; stroke-width: 0.8; stroke-linecap: square"/>
     </g>
     <g id="line2d_6">
      <g>
       <use xlink:href="#m39dfad9136" x="304.739582" y="382.752" style="fill: #64748b; stroke: #64748b; stroke-width: 0.8"/>
      </g>
     </g>
     <g id="text_3">
      <text style="font-size: 10.5px; font-family: 'Latin Modern Math', 'SimSun'; text-anchor: middle; fill: #64748b" x="304.739582" y="397.039656" transform="rotate(-0 304.739582 397.039656)">97.0%</text>
     </g>
    </g>
    <g id="xtick_4">
     <g id="line2d_7">
      <path d="M 423.425898 382.752 
L 423.425898 87.84 
" clip-path="url(#p4055576ad3)" style="fill: none; stroke: #dce5ef; stroke-opacity: 0.72; stroke-width: 0.8; stroke-linecap: square"/>
     </g>
     <g id="line2d_8">
      <g>
       <use xlink:href="#m39dfad9136" x="423.425898" y="382.752" style="fill: #64748b; stroke: #64748b; stroke-width: 0.8"/>
      </g>
     </g>
     <g id="text_4">
      <text style="font-size: 10.5px; font-family: 'Latin Modern Math', 'SimSun'; text-anchor: middle; fill: #64748b" x="423.425898" y="397.039656" transform="rotate(-0 423.425898 397.039656)">98.0%</text>
     </g>
    </g>
    <g id="xtick_5">
     <g id="line2d_9">
      <path d="M 542.112214 382.752 
L 542.112214 87.84 
" clip-path="url(#p4055576ad3)" style="fill: none; stroke: #dce5ef; stroke-opacity: 0.72; stroke-width: 0.8; stroke-linecap: square"/>
     </g>
     <g id="line2d_10">
      <g>
       <use xlink:href="#m39dfad9136" x="542.112214" y="382.752" style="fill: #64748b; stroke: #64748b; stroke-width: 0.8"/>
      </g>
     </g>
     <g id="text_5">
      <text style="font-size: 10.5px; font-family: 'Latin Modern Math', 'SimSun'; text-anchor: middle; fill: #64748b" x="542.112214" y="397.039656" transform="rotate(-0 542.112214 397.039656)">99.0%</text>
     </g>
    </g>
    <g id="xtick_6">
     <g id="line2d_11">
      <path d="M 660.79853 382.752 
L 660.79853 87.84 
" clip-path="url(#p4055576ad3)" style="fill: none; stroke: #dce5ef; stroke-opacity: 0.72; stroke-width: 0.8; stroke-linecap: square"/>
     </g>
     <g id="line2d_12">
      <g>
       <use xlink:href="#m39dfad9136" x="660.79853" y="382.752" style="fill: #64748b; stroke: #64748b; stroke-width: 0.8"/>
      </g>
     </g>
     <g id="text_6">
      <text style="font-size: 10.5px; font-family: 'Latin Modern Math', 'SimSun'; text-anchor: middle; fill: #64748b" x="660.79853" y="397.039656" transform="rotate(-0 660.79853 397.039656)">100.0%</text>
     </g>
    </g>
    <g id="text_7">
     <text style="font-size: 10.5px; font-family: 'Latin Modern Math', 'SimSun'; text-anchor: middle; fill: #64748b" x="381.885687" y="410.760359" transform="rotate(-0 381.885687 410.760359)">最大转运容量占用率</text>
    </g>
   </g>
   <g id="matplotlib.axis_2">
    <g id="ytick_1">
     <g id="line2d_13">
      <path d="M 43.629687 347.005091 
L 720.141687 347.005091 
" clip-path="url(#p4055576ad3)" style="fill: none; stroke: #dce5ef; stroke-opacity: 0.72; stroke-width: 0.8; stroke-linecap: square"/>
     </g>
     <g id="line2d_14">
      <defs>
       <path id="mf3d2c16df7" d="M 0 0 
L -3.5 0 
" style="stroke: #64748b; stroke-width: 0.8"/>
      </defs>
      <g>
       <use xlink:href="#mf3d2c16df7" x="43.629687" y="347.005091" style="fill: #64748b; stroke: #64748b; stroke-width: 0.8"/>
      </g>
     </g>
     <g id="text_8">
      <text style="font-size: 10.5px; font-family: 'Latin Modern Math', 'SimSun'; text-anchor: end; fill: #64748b" x="36.629687" y="350.648919" transform="rotate(-0 36.629687 350.648919)">0</text>
     </g>
    </g>
    <g id="ytick_2">
     <g id="line2d_15">
      <path d="M 43.629687 309.446727 
L 720.141687 309.446727 
" clip-path="url(#p4055576ad3)" style="fill: none; stroke: #dce5ef; stroke-opacity: 0.72; stroke-width: 0.8; stroke-linecap: square"/>
     </g>
     <g id="line2d_16">
      <g>
       <use xlink:href="#mf3d2c16df7" x="43.629687" y="309.446727" style="fill: #64748b; stroke: #64748b; stroke-width: 0.8"/>
      </g>
     </g>
     <g id="text_9">
      <text style="font-size: 10.5px; font-family: 'Latin Modern Math', 'SimSun'; text-anchor: end; fill: #64748b" x="36.629687" y="313.090555" transform="rotate(-0 36.629687 313.090555)">100</text>
     </g>
    </g>
    <g id="ytick_3">
     <g id="line2d_17">
      <path d="M 43.629687 271.888363 
L 720.141687 271.888363 
" clip-path="url(#p4055576ad3)" style="fill: none; stroke: #dce5ef; stroke-opacity: 0.72; stroke-width: 0.8; stroke-linecap: square"/>
     </g>
     <g id="line2d_18">
      <g>
       <use xlink:href="#mf3d2c16df7" x="43.629687" y="271.888363" style="fill: #64748b; stroke: #64748b; stroke-width: 0.8"/>
      </g>
     </g>
     <g id="text_10">
      <text style="font-size: 10.5px; font-family: 'Latin Modern Math', 'SimSun'; text-anchor: end; fill: #64748b" x="36.629687" y="275.532191" transform="rotate(-0 36.629687 275.532191)">200</text>
     </g>
    </g>
    <g id="ytick_4">
     <g id="line2d_19">
      <path d="M 43.629687 234.329999 
L 720.141687 234.329999 
" clip-path="url(#p4055576ad3)" style="fill: none; stroke: #dce5ef; stroke-opacity: 0.72; stroke-width: 0.8; stroke-linecap: square"/>
     </g>
     <g id="line2d_20">
      <g>
       <use xlink:href="#mf3d2c16df7" x="43.629687" y="234.329999" style="fill: #64748b; stroke: #64748b; stroke-width: 0.8"/>
      </g>
     </g>
     <g id="text_11">
      <text style="font-size: 10.5px; font-family: 'Latin Modern Math', 'SimSun'; text-anchor: end; fill: #64748b" x="36.629687" y="237.973827" transform="rotate(-0 36.629687 237.973827)">300</text>
     </g>
    </g>
    <g id="ytick_5">
     <g id="line2d_21">
      <path d="M 43.629687 196.771635 
L 720.141687 196.771635 
" clip-path="url(#p4055576ad3)" style="fill: none; stroke: #dce5ef; stroke-opacity: 0.72; stroke-width: 0.8; stroke-linecap: square"/>
     </g>
     <g id="line2d_22">
      <g>
       <use xlink:href="#mf3d2c16df7" x="43.629687" y="196.771635" style="fill: #64748b; stroke: #64748b; stroke-width: 0.8"/>
      </g>
     </g>
     <g id="text_12">
      <text style="font-size: 10.5px; font-family: 'Latin Modern Math', 'SimSun'; text-anchor: end; fill: #64748b" x="36.629687" y="200.415463" transform="rotate(-0 36.629687 200.415463)">400</text>
     </g>
    </g>
    <g id="ytick_6">
     <g id="line2d_23">
      <path d="M 43.629687 159.213271 
L 720.141687 159.213271 
" clip-path="url(#p4055576ad3)" style="fill: none; stroke: #dce5ef; stroke-opacity: 0.72; stroke-width: 0.8; stroke-linecap: square"/>
     </g>
     <g id="line2d_24">
      <g>
       <use xlink:href="#mf3d2c16df7" x="43.629687" y="159.213271" style="fill: #64748b; stroke: #64748b; stroke-width: 0.8"/>
      </g>
     </g>
     <g id="text_13">
      <text style="font-size: 10.5px; font-family: 'Latin Modern Math', 'SimSun'; text-anchor: end; fill: #64748b" x="36.629687" y="162.857099" transform="rotate(-0 36.629687 162.857099)">500</text>
     </g>
    </g>
    <g id="ytick_7">
     <g id="line2d_25">
      <path d="M 43.629687 121.654907 
L 720.141687 121.654907 
" clip-path="url(#p4055576ad3)" style="fill: none; stroke: #dce5ef; stroke-opacity: 0.72; stroke-width: 0.8; stroke-linecap: square"/>
     </g>
     <g id="line2d_26">
      <g>
       <use xlink:href="#mf3d2c16df7" x="43.629687" y="121.654907" style="fill: #64748b; stroke: #64748b; stroke-width: 0.8"/>
      </g>
     </g>
     <g id="text_14">
      <text style="font-size: 10.5px; font-family: 'Latin Modern Math', 'SimSun'; text-anchor: end; fill: #64748b" x="36.629687" y="125.298735" transform="rotate(-0 36.629687 125.298735)">600</text>
     </g>
    </g>
    <g id="text_15">
     <text style="font-size: 10.5px; font-family: 'Latin Modern Math', 'SimSun'; text-anchor: middle; fill: #64748b" x="14.842031" y="235.296" transform="rotate(-90 14.842031 235.296)">最小安全库存裕量</text>
    </g>
   </g>
   <g id="line2d_27">
    <path d="M 660.79853 382.752 
L 660.79853 87.84 
" clip-path="url(#p4055576ad3)" style="fill: none; stroke-dasharray: 5.2,5.2; stroke-dashoffset: 0; stroke: #e5484d; stroke-width: 1.3"/>
   </g>
   <g id="line2d_28">
    <path d="M 43.629687 347.005091 
L 720.141687 347.005091 
" clip-path="url(#p4055576ad3)" style="fill: none; stroke-dasharray: 5.2,5.2; stroke-dashoffset: 0; stroke: #e5484d; stroke-width: 1.3"/>
   </g>
   <g id="patch_3">
    <path d="M 43.629687 382.752 
L 43.629687 87.84 
" style="fill: none; stroke: #dce5ef; stroke-width: 0.8; stroke-linejoin: miter; stroke-linecap: square"/>
   </g>
   <g id="patch_4">
    <path d="M 43.629688 382.752 
L 720.141687 382.752 
" style="fill: none; stroke: #dce5ef; stroke-width: 0.8; stroke-linejoin: miter; stroke-linecap: square"/>
   </g>
   <g id="PathCollection_1">
    <defs>
     <path id="m2cca1d9ede" d="M 0 7.382412 
C 1.957838 7.382412 3.835752 6.604554 5.220153 5.220153 
C 6.604554 3.835752 7.382412 1.957838 7.382412 0 
C 7.382412 -1.957838 6.604554 -3.835752 5.220153 -5.220153 
C 3.835752 -6.604554 1.957838 -7.382412 0 -7.382412 
C -1.957838 -7.382412 -3.835752 -6.604554 -5.220153 -5.220153 
C -6.604554 -3.835752 -7.382412 -1.957838 -7.382412 0 
C -7.382412 1.957838 -6.604554 3.835752 -5.220153 5.220153 
C -3.835752 6.604554 -1.957838 7.382412 0 7.382412 
z
" style="stroke: #ffffff; stroke-opacity: 0.92; stroke-width: 1.8"/>
    </defs>
    <g clip-path="url(#p4055576ad3)">
     <use xlink:href="#m2cca1d9ede" x="561.475312" y="279.697122" style="fill: #2563eb; fill-opacity: 0.92; stroke: #ffffff; stroke-opacity: 0.92; stroke-width: 1.8"/>
    </g>
   </g>
   <g id="text_16">
    <text style="font-weight: 600; font-size: 10px; font-family: 'Latin Modern Math', 'SimSun'; text-anchor: start; fill: #172033" x="569.475312" y="272.697122" transform="rotate(-0 569.475312 272.697122)">S1</text>
   </g>
   <g id="PathCollection_2">
    <g clip-path="url(#p4055576ad3)">
     <use xlink:href="#m2cca1d9ede" x="561.475312" y="123.739396" style="fill: #2563eb; fill-opacity: 0.92; stroke: #ffffff; stroke-opacity: 0.92; stroke-width: 1.8"/>
    </g>
   </g>
   <g id="text_17">
    <text style="font-weight: 600; font-size: 10px; font-family: 'Latin Modern Math', 'SimSun'; text-anchor: start; fill: #172033" x="536.475312" y="112.739396" transform="rotate(-0 536.475312 112.739396)">S2</text>
   </g>
   <g id="PathCollection_3">
    <g clip-path="url(#p4055576ad3)">
     <use xlink:href="#m2cca1d9ede" x="561.475312" y="123.586909" style="fill: #2563eb; fill-opacity: 0.92; stroke: #ffffff; stroke-opacity: 0.92; stroke-width: 1.8"/>
    </g>
   </g>
   <g id="text_18">
    <text style="font-weight: 600; font-size: 10px; font-family: 'Latin Modern Math', 'SimSun'; text-anchor: start; fill: #172033" x="570.475312" y="130.586909" transform="rotate(-0 570.475312 130.586909)">S3</text>
   </g>
   <g id="PathCollection_4">
    <defs>
     <path id="m8dac2dc0e2" d="M 0 7.382412 
C 1.957838 7.382412 3.835752 6.604554 5.220153 5.220153 
C 6.604554 3.835752 7.382412 1.957838 7.382412 0 
C 7.382412 -1.957838 6.604554 -3.835752 5.220153 -5.220153 
C 3.835752 -6.604554 1.957838 -7.382412 0 -7.382412 
C -1.957838 -7.382412 -3.835752 -6.604554 -5.220153 -5.220153 
C -6.604554 -3.835752 -7.382412 -1.957838 -7.382412 0 
C -7.382412 1.957838 -6.604554 3.835752 -5.220153 5.220153 
C -3.835752 6.604554 -1.957838 7.382412 0 7.382412 
z
" style="stroke: #ffffff; stroke-opacity: 0.92; stroke-width: 1.8"/>
    </defs>
    <g clip-path="url(#p4055576ad3)">
     <use xlink:href="#m8dac2dc0e2" x="660.79853" y="301.987636" style="fill: #0891b2; fill-opacity: 0.92; stroke: #ffffff; stroke-opacity: 0.92; stroke-width: 1.8"/>
    </g>
   </g>
   <g id="text_19">
    <text style="font-weight: 600; font-size: 10px; font-family: 'Latin Modern Math', 'SimSun'; text-anchor: start; fill: #172033" x="668.79853" y="294.987636" transform="rotate(-0 668.79853 294.987636)">S4</text>
   </g>
   <g id="PathCollection_5">
    <defs>
     <path id="m44dbc14c12" d="M 0 7.158911 
C 1.898565 7.158911 3.719626 6.404603 5.062114 5.062114 
C 6.404603 3.719626 7.158911 1.898565 7.158911 0 
C 7.158911 -1.898565 6.404603 -3.719626 5.062114 -5.062114 
C 3.719626 -6.404603 1.898565 -7.158911 0 -7.158911 
C -1.898565 -7.158911 -3.719626 -6.404603 -5.062114 -5.062114 
C -6.404603 -3.719626 -7.158911 -1.898565 -7.158911 0 
C -7.158911 1.898565 -6.404603 3.719626 -5.062114 5.062114 
C -3.719626 6.404603 -1.898565 7.158911 0 7.158911 
z
" style="stroke: #e5484d; stroke-opacity: 0.92; stroke-width: 1.8"/>
    </defs>
    <g clip-path="url(#p4055576ad3)">
     <use xlink:href="#m44dbc14c12" x="660.79853" y="268.838624" style="fill: #0891b2; fill-opacity: 0.92; stroke: #e5484d; stroke-opacity: 0.92; stroke-width: 1.8"/>
    </g>
   </g>
   <g id="text_20">
    <text style="font-weight: 600; font-size: 10px; font-family: 'Latin Modern Math', 'SimSun'; text-anchor: start; fill: #172033" x="668.79853" y="277.838624" transform="rotate(-0 668.79853 277.838624)">S5</text>
   </g>
   <g id="PathCollection_6">
    <g clip-path="url(#p4055576ad3)">
     <use xlink:href="#m44dbc14c12" x="660.79853" y="266.162966" style="fill: #0891b2; fill-opacity: 0.92; stroke: #e5484d; stroke-opacity: 0.92; stroke-width: 1.8"/>
    </g>
   </g>
   <g id="text_21">
    <text style="font-weight: 600; font-size: 10px; font-family: 'Latin Modern Math', 'SimSun'; text-anchor: start; fill: #172033" x="668.79853" y="255.162966" transform="rotate(-0 668.79853 255.162966)">S6</text>
   </g>
   <g id="PathCollection_7">
    <defs>
     <path id="m38b79f46a1" d="M 0 7.81025 
C 2.071302 7.81025 4.058049 6.987312 5.522681 5.522681 
C 6.987312 4.058049 7.81025 2.071302 7.81025 0 
C 7.81025 -2.071302 6.987312 -4.058049 5.522681 -5.522681 
C 4.058049 -6.987312 2.071302 -7.81025 0 -7.81025 
C -2.071302 -7.81025 -4.058049 -6.987312 -5.522681 -5.522681 
C -6.987312 -4.058049 -7.81025 -2.071302 -7.81025 0 
C -7.81025 2.071302 -6.987312 4.058049 -5.522681 5.522681 
C -4.058049 6.987312 -2.071302 7.81025 0 7.81025 
z
" style="stroke: #ffffff; stroke-opacity: 0.92; stroke-width: 1.8"/>
    </defs>
    <g clip-path="url(#p4055576ad3)">
     <use xlink:href="#m38b79f46a1" x="547.441612" y="344.668585" style="fill: #f59e0b; fill-opacity: 0.92; stroke: #ffffff; stroke-opacity: 0.92; stroke-width: 1.8"/>
    </g>
   </g>
   <g id="text_22">
    <text style="font-weight: 600; font-size: 10px; font-family: 'Latin Modern Math', 'SimSun'; text-anchor: start; fill: #172033" x="555.441612" y="336.668585" transform="rotate(-0 555.441612 336.668585)">S7</text>
   </g>
   <g id="PathCollection_8">
    <g clip-path="url(#p4055576ad3)">
     <use xlink:href="#m38b79f46a1" x="654.247811" y="251.115959" style="fill: #f59e0b; fill-opacity: 0.92; stroke: #ffffff; stroke-opacity: 0.92; stroke-width: 1.8"/>
    </g>
   </g>
   <g id="text_23">
    <text style="font-weight: 600; font-size: 10px; font-family: 'Latin Modern Math', 'SimSun'; text-anchor: start; fill: #172033" x="662.247811" y="243.115959" transform="rotate(-0 662.247811 243.115959)">S8</text>
   </g>
   <g id="text_24">
    <text style="font-size: 9px; font-family: 'Latin Modern Math', 'SimSun'; text-anchor: end; fill: #e5484d" x="654.864214" y="100.288552" transform="rotate(-0 654.864214 100.288552)">转运容量上限</text>
   </g>
   <g id="legend_1">
    <g id="line2d_29">
     <defs>
      <path id="m356045b24d" d="M 0 4 
C 1.060812 4 2.078319 3.578535 2.828427 2.828427 
C 3.578535 2.078319 4 1.060812 4 0 
C 4 -1.060812 3.578535 -2.078319 2.828427 -2.828427 
C 2.078319 -3.578535 1.060812 -4 0 -4 
C -1.060812 -4 -2.078319 -3.578535 -2.828427 -2.828427 
C -3.578535 -2.078319 -4 -1.060812 -4 0 
C -4 1.060812 -3.578535 2.078319 -2.828427 2.828427 
C -2.078319 3.578535 -1.060812 4 0 4 
z
" style="stroke: #ffffff"/>
     </defs>
     <g>
      <use xlink:href="#m356045b24d" x="286.262" y="69.787961" style="fill: #2563eb; stroke: #ffffff"/>
     </g>
    </g>
    <g id="text_25">
     <text style="font-size: 10.5px; font-family: 'Latin Modern Math', 'SimSun'; text-anchor: start; fill: #172033" x="305.162" y="73.462961" transform="rotate(-0 305.162 73.462961)">供货偏差 -5%</text>
    </g>
    <g id="line2d_30">
     <defs>
      <path id="m952dfbd1eb" d="M 0 4 
C 1.060812 4 2.078319 3.578535 2.828427 2.828427 
C 3.578535 2.078319 4 1.060812 4 0 
C 4 -1.060812 3.578535 -2.078319 2.828427 -2.828427 
C 2.078319 -3.578535 1.060812 -4 0 -4 
C -1.060812 -4 -2.078319 -3.578535 -2.828427 -2.828427 
C -3.578535 -2.078319 -4 -1.060812 -4 0 
C -4 1.060812 -3.578535 2.078319 -2.828427 2.828427 
C -2.078319 3.578535 -1.060812 4 0 4 
z
" style="stroke: #ffffff"/>
     </defs>
     <g>
      <use xlink:href="#m952dfbd1eb" x="394.390672" y="69.787961" style="fill: #0891b2; stroke: #ffffff"/>
     </g>
    </g>
    <g id="text_26">
     <text style="font-size: 10.5px; font-family: 'Latin Modern Math', 'SimSun'; text-anchor: start; fill: #172033" x="413.290672" y="73.462961" transform="rotate(-0 413.290672 73.462961)">供货偏差 +0%</text>
    </g>
    <g id="line2d_31">
     <defs>
      <path id="m97b62afe9d" d="M 0 4 
C 1.060812 4 2.078319 3.578535 2.828427 2.828427 
C 3.578535 2.078319 4 1.060812 4 0 
C 4 -1.060812 3.578535 -2.078319 2.828427 -2.828427 
C 2.078319 -3.578535 1.060812 -4 0 -4 
C -1.060812 -4 -2.078319 -3.578535 -2.828427 -2.828427 
C -3.578535 -2.078319 -4 -1.060812 -4 0 
C -4 1.060812 -3.578535 2.078319 -2.828427 2.828427 
C -2.078319 3.578535 -1.060812 4 0 4 
z
" style="stroke: #ffffff"/>
     </defs>
     <g>
      <use xlink:href="#m97b62afe9d" x="507.191844" y="69.787961" style="fill: #f59e0b; stroke: #ffffff"/>
     </g>
    </g>
    <g id="text_27">
     <text style="font-size: 10.5px; font-family: 'Latin Modern Math', 'SimSun'; text-anchor: start; fill: #172033" x="526.091844" y="73.462961" transform="rotate(-0 526.091844 73.462961)">供货偏差 +5%</text>
    </g>
    <g id="line2d_32">
     <defs>
      <path id="mabc684e7dc" d="M 0 4 
C 1.060812 4 2.078319 3.578535 2.828427 2.828427 
C 3.578535 2.078319 4 1.060812 4 0 
C 4 -1.060812 3.578535 -2.078319 2.828427 -2.828427 
C 2.078319 -3.578535 1.060812 -4 0 -4 
C -1.060812 -4 -2.078319 -3.578535 -2.828427 -2.828427 
C -3.578535 -2.078319 -4 -1.060812 -4 0 
C -4 1.060812 -3.578535 2.078319 -2.828427 2.828427 
C -2.078319 3.578535 -1.060812 4 0 4 
z
" style="stroke: #e5484d; stroke-width: 1.5"/>
     </defs>
     <g>
      <use xlink:href="#mabc684e7dc" x="619.993016" y="69.787961" style="fill: #ffffff; stroke: #e5484d; stroke-width: 1.5"/>
     </g>
    </g>
    <g id="text_28">
     <text style="font-size: 10.5px; font-family: 'Latin Modern Math', 'SimSun'; text-anchor: start; fill: #172033" x="638.893016" y="73.462961" transform="rotate(-0 638.893016 73.462961)">未达到 5% Gap</text>
    </g>
   </g>
  </g>
  <g id="text_29">
   <text style="font-weight: 600; font-size: 20px; font-family: 'Latin Modern Math', 'SimSun'; text-anchor: start; fill: #172033" x="35.853687" y="21.75625" transform="rotate(-0 35.853687 21.75625)">情景可行性与运营缓冲空间</text>
  </g>
  <g id="text_30">
   <text style="font-size: 10.5px; font-family: 'Latin Modern Math', 'SimSun'; text-anchor: start; fill: #64748b" x="35.853687" y="34.848" transform="rotate(-0 35.853687 34.848)">库存裕量越高、转运容量占用越低，方案的运营缓冲越充分</text>
  </g>
  <g id="text_31">
   <text style="font-size: 9px; font-family: 'Latin Modern Math', 'SimSun'; text-anchor: start; fill: #64748b" x="35.853687" y="435.744" transform="rotate(-0 35.853687 435.744)">注：圆点面积表示 12 周实际使用的供应商数量；S1—S8 为已完成情景，S9 限时未完成。</text>
  </g>
 </g>
 <defs>
  <clipPath id="p4055576ad3">
   <rect x="43.629687" y="87.84" width="676.512" height="294.912"/>
  </clipPath>
 </defs>
</svg>
