<?xml version="1.0" encoding="utf-8" standalone="no"?>
<!DOCTYPE svg PUBLIC "-//W3C//DTD SVG 1.1//EN"
  "http://www.w3.org/Graphics/SVG/1.1/DTD/svg11.dtd">
<svg xmlns:xlink="http://www.w3.org/1999/xlink" width="938.309375pt" height="442.158pt" viewBox="0 0 938.309375 442.158" xmlns="http://www.w3.org/2000/svg" version="1.1">
 <metadata>
  <rdf:RDF xmlns:dc="http://purl.org/dc/elements/1.1/" xmlns:cc="http://creativecommons.org/ns#" xmlns:rdf="http://www.w3.org/1999/02/22-rdf-syntax-ns#">
   <cc:Work>
    <dc:type rdf:resource="http://purl.org/dc/dcmitype/StillImage"/>
    <dc:date>2026-07-21T21:33:57.901616</dc:date>
    <dc:format>image/svg+xml</dc:format>
    <dc:creator>
     <cc:Agent>
      <dc:title>Matplotlib v3.10.8, https://matplotlib.org/</dc:title>
     </cc:Agent>
    </dc:creator>
   </cc:Work>
  </rdf:RDF>
 </metadata>
 <defs>
  <style type="text/css">*{stroke-linejoin: round; stroke-linecap: butt}</style>
 </defs>
 <g id="figure_1">
  <g id="patch_1">
   <path d="M 0 442.158 
L 938.309375 442.158 
L 938.309375 -0 
L 0 -0 
z
" style="fill: #ffffff"/>
  </g>
  <g id="axes_1">
   <g id="patch_2">
    <path d="M 46.589375 353.16 
L 439.709375 353.16 
L 439.709375 112.104 
L 46.589375 112.104 
z
" style="fill: #ffffff"/>
   </g>
   <g id="matplotlib.axis_1">
    <g id="xtick_1">
     <g id="line2d_1">
      <defs>
       <path id="mf706937aef" d="M 0 0 
L 0 3.5 
" style="stroke: #64748b; stroke-width: 0.8"/>
      </defs>
      <g>
       <use xlink:href="#mf706937aef" x="73.701099" y="353.16" style="fill: #64748b; stroke: #64748b; stroke-width: 0.8"/>
      </g>
     </g>
     <g id="text_1">
      <text style="font-size: 10.5px; font-family: 'Latin Modern Math', 'SimSun'; text-anchor: middle; fill: #64748b" x="73.701099" y="367.447656" transform="rotate(-0 73.701099 367.447656)">1%</text>
     </g>
    </g>
    <g id="xtick_2">
     <g id="line2d_2">
      <g>
       <use xlink:href="#mf706937aef" x="243.149375" y="353.16" style="fill: #64748b; stroke: #64748b; stroke-width: 0.8"/>
      </g>
     </g>
     <g id="text_2">
      <text style="font-size: 10.5px; font-family: 'Latin Modern Math', 'SimSun'; text-anchor: middle; fill: #64748b" x="243.149375" y="367.447656" transform="rotate(-0 243.149375 367.447656)">3%</text>
     </g>
    </g>
    <g id="xtick_3">
     <g id="line2d_3">
      <g>
       <use xlink:href="#mf706937aef" x="412.597651" y="353.16" style="fill: #64748b; stroke: #64748b; stroke-width: 0.8"/>
      </g>
     </g>
     <g id="text_3">
      <text style="font-size: 10.5px; font-family: 'Latin Modern Math', 'SimSun'; text-anchor: middle; fill: #64748b" x="412.597651" y="367.447656" transform="rotate(-0 412.597651 367.447656)">5%</text>
     </g>
    </g>
    <g id="text_4">
     <text style="font-size: 10.5px; font-family: 'Latin Modern Math', 'SimSun'; text-anchor: middle; fill: #64748b" x="243.149375" y="381.168359" transform="rotate(-0 243.149375 381.168359)">每周损耗下降比例</text>
    </g>
   </g>
   <g id="matplotlib.axis_2">
    <g id="ytick_1">
     <g id="line2d_4">
      <path d="M 46.589375 327.405992 
L 439.709375 327.405992 
" clip-path="url(#pfbcfbb321f)" style="fill: none; stroke: #dce5ef; stroke-opacity: 0.72; stroke-width: 0.8; stroke-linecap: square"/>
     </g>
     <g id="line2d_5">
      <defs>
       <path id="mfb72f0ba1c" d="M 0 0 
L -3.5 0 
" style="stroke: #64748b; stroke-width: 0.8"/>
      </defs>
      <g>
       <use xlink:href="#mfb72f0ba1c" x="46.589375" y="327.405992" style="fill: #64748b; stroke: #64748b; stroke-width: 0.8"/>
      </g>
     </g>
     <g id="text_5">
      <text style="font-size: 10.5px; font-family: 'Latin Modern Math', 'SimSun'; text-anchor: end; fill: #64748b" x="39.589375" y="331.049821" transform="rotate(-0 39.589375 331.049821)">29.0</text>
     </g>
    </g>
    <g id="ytick_2">
     <g id="line2d_6">
      <path d="M 46.589375 298.619438 
L 439.709375 298.619438 
" clip-path="url(#pfbcfbb321f)" style="fill: none; stroke: #dce5ef; stroke-opacity: 0.72; stroke-width: 0.8; stroke-linecap: square"/>
     </g>
     <g id="line2d_7">
      <g>
       <use xlink:href="#mfb72f0ba1c" x="46.589375" y="298.619438" style="fill: #64748b; stroke: #64748b; stroke-width: 0.8"/>
      </g>
     </g>
     <g id="text_6">
      <text style="font-size: 10.5px; font-family: 'Latin Modern Math', 'SimSun'; text-anchor: end; fill: #64748b" x="39.589375" y="302.263266" transform="rotate(-0 39.589375 302.263266)">29.5</text>
     </g>
    </g>
    <g id="ytick_3">
     <g id="line2d_8">
      <path d="M 46.589375 269.832883 
L 439.709375 269.832883 
" clip-path="url(#pfbcfbb321f)" style="fill: none; stroke: #dce5ef; stroke-opacity: 0.72; stroke-width: 0.8; stroke-linecap: square"/>
     </g>
     <g id="line2d_9">
      <g>
       <use xlink:href="#mfb72f0ba1c" x="46.589375" y="269.832883" style="fill: #64748b; stroke: #64748b; stroke-width: 0.8"/>
      </g>
     </g>
     <g id="text_7">
      <text style="font-size: 10.5px; font-family: 'Latin Modern Math', 'SimSun'; text-anchor: end; fill: #64748b" x="39.589375" y="273.476711" transform="rotate(-0 39.589375 273.476711)">30.0</text>
     </g>
    </g>
    <g id="ytick_4">
     <g id="line2d_10">
      <path d="M 46.589375 241.046328 
L 439.709375 241.046328 
" clip-path="url(#pfbcfbb321f)" style="fill: none; stroke: #dce5ef; stroke-opacity: 0.72; stroke-width: 0.8; stroke-linecap: square"/>
     </g>
     <g id="line2d_11">
      <g>
       <use xlink:href="#mfb72f0ba1c" x="46.589375" y="241.046328" style="fill: #64748b; stroke: #64748b; stroke-width: 0.8"/>
      </g>
     </g>
     <g id="text_8">
      <text style="font-size: 10.5px; font-family: 'Latin Modern Math', 'SimSun'; text-anchor: end; fill: #64748b" x="39.589375" y="244.690157" transform="rotate(-0 39.589375 244.690157)">30.5</text>
     </g>
    </g>
    <g id="ytick_5">
     <g id="line2d_12">
      <path d="M 46.589375 212.259774 
L 439.709375 212.259774 
" clip-path="url(#pfbcfbb321f)" style="fill: none; stroke: #dce5ef; stroke-opacity: 0.72; stroke-width: 0.8; stroke-linecap: square"/>
     </g>
     <g id="line2d_13">
      <g>
       <use xlink:href="#mfb72f0ba1c" x="46.589375" y="212.259774" style="fill: #64748b; stroke: #64748b; stroke-width: 0.8"/>
      </g>
     </g>
     <g id="text_9">
      <text style="font-size: 10.5px; font-family: 'Latin Modern Math', 'SimSun'; text-anchor: end; fill: #64748b" x="39.589375" y="215.903602" transform="rotate(-0 39.589375 215.903602)">31.0</text>
     </g>
    </g>
    <g id="ytick_6">
     <g id="line2d_14">
      <path d="M 46.589375 183.473219 
L 439.709375 183.473219 
" clip-path="url(#pfbcfbb321f)" style="fill: none; stroke: #dce5ef; stroke-opacity: 0.72; stroke-width: 0.8; stroke-linecap: square"/>
     </g>
     <g id="line2d_15">
      <g>
       <use xlink:href="#mfb72f0ba1c" x="46.589375" y="183.473219" style="fill: #64748b; stroke: #64748b; stroke-width: 0.8"/>
      </g>
     </g>
     <g id="text_10">
      <text style="font-size: 10.5px; font-family: 'Latin Modern Math', 'SimSun'; text-anchor: end; fill: #64748b" x="39.589375" y="187.117047" transform="rotate(-0 39.589375 187.117047)">31.5</text>
     </g>
    </g>
    <g id="ytick_7">
     <g id="line2d_16">
      <path d="M 46.589375 154.686665 
L 439.709375 154.686665 
" clip-path="url(#pfbcfbb321f)" style="fill: none; stroke: #dce5ef; stroke-opacity: 0.72; stroke-width: 0.8; stroke-linecap: square"/>
     </g>
     <g id="line2d_17">
      <g>
       <use xlink:href="#mfb72f0ba1c" x="46.589375" y="154.686665" style="fill: #64748b; stroke: #64748b; stroke-width: 0.8"/>
      </g>
     </g>
     <g id="text_11">
      <text style="font-size: 10.5px; font-family: 'Latin Modern Math', 'SimSun'; text-anchor: end; fill: #64748b" x="39.589375" y="158.330493" transform="rotate(-0 39.589375 158.330493)">32.0</text>
     </g>
    </g>
    <g id="ytick_8">
     <g id="line2d_18">
      <path d="M 46.589375 125.90011 
L 439.709375 125.90011 
" clip-path="url(#pfbcfbb321f)" style="fill: none; stroke: #dce5ef; stroke-opacity: 0.72; stroke-width: 0.8; stroke-linecap: square"/>
     </g>
     <g id="line2d_19">
      <g>
       <use xlink:href="#mfb72f0ba1c" x="46.589375" y="125.90011" style="fill: #64748b; stroke: #64748b; stroke-width: 0.8"/>
      </g>
     </g>
     <g id="text_12">
      <text style="font-size: 10.5px; font-family: 'Latin Modern Math', 'SimSun'; text-anchor: end; fill: #64748b" x="39.589375" y="129.543938" transform="rotate(-0 39.589375 129.543938)">32.5</text>
     </g>
    </g>
    <g id="text_13">
     <text style="font-size: 10.5px; font-family: 'Latin Modern Math', 'SimSun'; text-anchor: middle; fill: #64748b" x="14.883047" y="232.632" transform="rotate(-90 14.883047 232.632)">优化经济成本</text>
    </g>
   </g>
   <g id="line2d_20">
    <path d="M 73.701099 248.308025 
L 243.149375 227.535946 
L 412.597651 229.564742 
" clip-path="url(#pfbcfbb321f)" style="fill: none; stroke: #2563eb; stroke-width: 2.5; stroke-linecap: square"/>
    <defs>
     <path id="m6e24cf8971" d="M 0 3.5 
C 0.928211 3.5 1.81853 3.131218 2.474874 2.474874 
C 3.131218 1.81853 3.5 0.928211 3.5 0 
C 3.5 -0.928211 3.131218 -1.81853 2.474874 -2.474874 
C 1.81853 -3.131218 0.928211 -3.5 0 -3.5 
C -0.928211 -3.5 -1.81853 -3.131218 -2.474874 -2.474874 
C -3.131218 -1.81853 -3.5 -0.928211 -3.5 0 
C -3.5 0.928211 -3.131218 1.81853 -2.474874 2.474874 
C -1.81853 3.131218 -0.928211 3.5 0 3.5 
z
" style="stroke: #ffffff; stroke-width: 1.2"/>
    </defs>
    <g clip-path="url(#pfbcfbb321f)">
     <use xlink:href="#m6e24cf8971" x="73.701099" y="248.308025" style="fill: #2563eb; stroke: #ffffff; stroke-width: 1.2"/>
     <use xlink:href="#m6e24cf8971" x="243.149375" y="227.535946" style="fill: #2563eb; stroke: #ffffff; stroke-width: 1.2"/>
     <use xlink:href="#m6e24cf8971" x="412.597651" y="229.564742" style="fill: #2563eb; stroke: #ffffff; stroke-width: 1.2"/>
    </g>
   </g>
   <g id="line2d_21">
    <path d="M 73.701099 312.815193 
L 243.149375 144.008471 
L 412.597651 156.315874 
" clip-path="url(#pfbcfbb321f)" style="fill: none; stroke: #0891b2; stroke-width: 2.5; stroke-linecap: square"/>
    <defs>
     <path id="m6dd6ac9cab" d="M 0 3.5 
C 0.928211 3.5 1.81853 3.131218 2.474874 2.474874 
C 3.131218 1.81853 3.5 0.928211 3.5 0 
C 3.5 -0.928211 3.131218 -1.81853 2.474874 -2.474874 
C 1.81853 -3.131218 0.928211 -3.5 0 -3.5 
C -0.928211 -3.5 -1.81853 -3.131218 -2.474874 -2.474874 
C -3.131218 -1.81853 -3.5 -0.928211 -3.5 0 
C -3.5 0.928211 -3.131218 1.81853 -2.474874 2.474874 
C -1.81853 3.131218 -0.928211 3.5 0 3.5 
z
" style="stroke: #ffffff; stroke-width: 1.2"/>
    </defs>
    <g clip-path="url(#pfbcfbb321f)">
     <use xlink:href="#m6dd6ac9cab" x="73.701099" y="312.815193" style="fill: #0891b2; stroke: #ffffff; stroke-width: 1.2"/>
     <use xlink:href="#m6dd6ac9cab" x="243.149375" y="144.008471" style="fill: #0891b2; stroke: #ffffff; stroke-width: 1.2"/>
     <use xlink:href="#m6dd6ac9cab" x="412.597651" y="156.315874" style="fill: #0891b2; stroke: #ffffff; stroke-width: 1.2"/>
    </g>
   </g>
   <g id="line2d_22">
    <path d="M 73.701099 303.489726 
L 243.149375 301.53574 
" clip-path="url(#pfbcfbb321f)" style="fill: none; stroke: #f59e0b; stroke-width: 2.5; stroke-linecap: square"/>
    <defs>
     <path id="m0cc2e94d58" d="M 0 3.5 
C 0.928211 3.5 1.81853 3.131218 2.474874 2.474874 
C 3.131218 1.81853 3.5 0.928211 3.5 0 
C 3.5 -0.928211 3.131218 -1.81853 2.474874 -2.474874 
C 1.81853 -3.131218 0.928211 -3.5 0 -3.5 
C -0.928211 -3.5 -1.81853 -3.131218 -2.474874 -2.474874 
C -3.131218 -1.81853 -3.5 -0.928211 -3.5 0 
C -3.5 0.928211 -3.131218 1.81853 -2.474874 2.474874 
C -1.81853 3.131218 -0.928211 3.5 0 3.5 
z
" style="stroke: #ffffff; stroke-width: 1.2"/>
    </defs>
    <g clip-path="url(#pfbcfbb321f)">
     <use xlink:href="#m0cc2e94d58" x="73.701099" y="303.489726" style="fill: #f59e0b; stroke: #ffffff; stroke-width: 1.2"/>
     <use xlink:href="#m0cc2e94d58" x="243.149375" y="301.53574" style="fill: #f59e0b; stroke: #ffffff; stroke-width: 1.2"/>
    </g>
   </g>
   <g id="patch_3">
    <path d="M 46.589375 353.16 
L 46.589375 112.104 
" style="fill: none; stroke: #dce5ef; stroke-width: 0.8; stroke-linejoin: miter; stroke-linecap: square"/>
   </g>
   <g id="patch_4">
    <path d="M 46.589375 353.16 
L 439.709375 353.16 
" style="fill: none; stroke: #dce5ef; stroke-width: 0.8; stroke-linejoin: miter; stroke-linecap: square"/>
   </g>
   <g id="text_14">
    <text style="font-weight: 600; font-size: 15px; font-family: 'Latin Modern Math', 'SimSun'; text-anchor: start; fill: #172033" x="46.589375" y="96.104" transform="rotate(-0 46.589375 96.104)">经济成本对情景组合呈非单调变化</text>
   </g>
   <g id="text_15">
    <text style="font-size: 9px; font-family: 'SimSun'; text-anchor: start; fill: #64748b" x="390.269375" y="106.122724" transform="rotate(-0 390.269375 106.122724)">单位：</text>
   </g>
   <g id="text_16">
    <!-- $\times 10^{4}$ -->
    <g style="fill: #64748b" transform="translate(420.269375 105.384442)">
     <text>
      <tspan x="0" y="-0.021875" style="font-size: 9px; font-family: 'Latin Modern Math'; fill: #64748b">×</tspan>
      <tspan x="7.001999" y="-0.021875" style="font-size: 9px; font-family: 'Latin Modern Math'; fill: #64748b">1</tspan>
      <tspan x="11.501999" y="-0.021875" style="font-size: 9px; font-family: 'Latin Modern Math'; fill: #64748b">0</tspan>
      <tspan x="16.069811" y="-2.734375" style="font-size: 6.3px; font-family: 'Latin Modern Math'; fill: #64748b">4</tspan>
     </text>
    </g>
   </g>
   <g id="PathCollection_1">
    <defs>
     <path id="madcb199968" d="M 0 4.582576 
C 1.215313 4.582576 2.381014 4.099727 3.24037 3.24037 
C 4.099727 2.381014 4.582576 1.215313 4.582576 0 
C 4.582576 -1.215313 4.099727 -2.381014 3.24037 -3.24037 
C 2.381014 -4.099727 1.215313 -4.582576 0 -4.582576 
C -1.215313 -4.582576 -2.381014 -4.099727 -3.24037 -3.24037 
C -4.099727 -2.381014 -4.582576 -1.215313 -4.582576 0 
C -4.582576 1.215313 -4.099727 2.381014 -3.24037 3.24037 
C -2.381014 4.099727 -1.215313 4.582576 0 4.582576 
z
" style="stroke: #e5484d; stroke-width: 1.6"/>
    </defs>
    <g clip-path="url(#pfbcfbb321f)">
     <use xlink:href="#madcb199968" x="243.149375" y="144.008471" style="fill: #ffffff; stroke: #e5484d; stroke-width: 1.6"/>
    </g>
   </g>
   <g id="PathCollection_2">
    <g clip-path="url(#pfbcfbb321f)">
     <use xlink:href="#madcb199968" x="412.597651" y="156.315874" style="fill: #ffffff; stroke: #e5484d; stroke-width: 1.6"/>
    </g>
   </g>
   <g id="PathCollection_3">
    <defs>
     <path id="m9d32ef3827" d="M -3.807887 3.807887 
L 3.807887 -3.807887 
M -3.807887 -3.807887 
L 3.807887 3.807887 
" style="stroke: #e5484d; stroke-width: 1.8"/>
    </defs>
    <g>
     <use xlink:href="#m9d32ef3827" x="412.597651" y="321.255529" style="fill: #e5484d; stroke: #e5484d; stroke-width: 1.8"/>
    </g>
   </g>
  </g>
  <g id="axes_2">
   <g id="patch_5">
    <path d="M 537.989375 353.16 
L 931.109375 353.16 
L 931.109375 112.104 
L 537.989375 112.104 
z
" style="fill: #ffffff"/>
   </g>
   <g id="matplotlib.axis_3">
    <g id="xtick_4">
     <g id="line2d_23">
      <g>
       <use xlink:href="#mf706937aef" x="565.101099" y="353.16" style="fill: #64748b; stroke: #64748b; stroke-width: 0.8"/>
      </g>
     </g>
     <g id="text_17">
      <text style="font-size: 10.5px; font-family: 'Latin Modern Math', 'SimSun'; text-anchor: middle; fill: #64748b" x="565.101099" y="367.447656" transform="rotate(-0 565.101099 367.447656)">1%</text>
     </g>
    </g>
    <g id="xtick_5">
     <g id="line2d_24">
      <g>
       <use xlink:href="#mf706937aef" x="734.549375" y="353.16" style="fill: #64748b; stroke: #64748b; stroke-width: 0.8"/>
      </g>
     </g>
     <g id="text_18">
      <text style="font-size: 10.5px; font-family: 'Latin Modern Math', 'SimSun'; text-anchor: middle; fill: #64748b" x="734.549375" y="367.447656" transform="rotate(-0 734.549375 367.447656)">3%</text>
     </g>
    </g>
    <g id="xtick_6">
     <g id="line2d_25">
      <g>
       <use xlink:href="#mf706937aef" x="903.997651" y="353.16" style="fill: #64748b; stroke: #64748b; stroke-width: 0.8"/>
      </g>
     </g>
     <g id="text_19">
      <text style="font-size: 10.5px; font-family: 'Latin Modern Math', 'SimSun'; text-anchor: middle; fill: #64748b" x="903.997651" y="367.447656" transform="rotate(-0 903.997651 367.447656)">5%</text>
     </g>
    </g>
    <g id="text_20">
     <text style="font-size: 10.5px; font-family: 'Latin Modern Math', 'SimSun'; text-anchor: middle; fill: #64748b" x="734.549375" y="381.168359" transform="rotate(-0 734.549375 381.168359)">每周损耗下降比例</text>
    </g>
   </g>
   <g id="matplotlib.axis_4">
    <g id="ytick_9">
     <g id="line2d_26">
      <path d="M 537.989375 319.069657 
L 931.109375 319.069657 
" clip-path="url(#p4768a75067)" style="fill: none; stroke: #dce5ef; stroke-opacity: 0.72; stroke-width: 0.8; stroke-linecap: square"/>
     </g>
     <g id="line2d_27">
      <g>
       <use xlink:href="#mfb72f0ba1c" x="537.989375" y="319.069657" style="fill: #64748b; stroke: #64748b; stroke-width: 0.8"/>
      </g>
     </g>
     <g id="text_21">
      <text style="font-size: 10.5px; font-family: 'Latin Modern Math', 'SimSun'; text-anchor: end; fill: #64748b" x="530.989375" y="322.713485" transform="rotate(-0 530.989375 322.713485)">1,150</text>
     </g>
    </g>
    <g id="ytick_10">
     <g id="line2d_28">
      <path d="M 537.989375 283.227458 
L 931.109375 283.227458 
" clip-path="url(#p4768a75067)" style="fill: none; stroke: #dce5ef; stroke-opacity: 0.72; stroke-width: 0.8; stroke-linecap: square"/>
     </g>
     <g id="line2d_29">
      <g>
       <use xlink:href="#mfb72f0ba1c" x="537.989375" y="283.227458" style="fill: #64748b; stroke: #64748b; stroke-width: 0.8"/>
      </g>
     </g>
     <g id="text_22">
      <text style="font-size: 10.5px; font-family: 'Latin Modern Math', 'SimSun'; text-anchor: end; fill: #64748b" x="530.989375" y="286.871286" transform="rotate(-0 530.989375 286.871286)">1,200</text>
     </g>
    </g>
    <g id="ytick_11">
     <g id="line2d_30">
      <path d="M 537.989375 247.385259 
L 931.109375 247.385259 
" clip-path="url(#p4768a75067)" style="fill: none; stroke: #dce5ef; stroke-opacity: 0.72; stroke-width: 0.8; stroke-linecap: square"/>
     </g>
     <g id="line2d_31">
      <g>
       <use xlink:href="#mfb72f0ba1c" x="537.989375" y="247.385259" style="fill: #64748b; stroke: #64748b; stroke-width: 0.8"/>
      </g>
     </g>
     <g id="text_23">
      <text style="font-size: 10.5px; font-family: 'Latin Modern Math', 'SimSun'; text-anchor: end; fill: #64748b" x="530.989375" y="251.029087" transform="rotate(-0 530.989375 251.029087)">1,250</text>
     </g>
    </g>
    <g id="ytick_12">
     <g id="line2d_32">
      <path d="M 537.989375 211.543059 
L 931.109375 211.543059 
" clip-path="url(#p4768a75067)" style="fill: none; stroke: #dce5ef; stroke-opacity: 0.72; stroke-width: 0.8; stroke-linecap: square"/>
     </g>
     <g id="line2d_33">
      <g>
       <use xlink:href="#mfb72f0ba1c" x="537.989375" y="211.543059" style="fill: #64748b; stroke: #64748b; stroke-width: 0.8"/>
      </g>
     </g>
     <g id="text_24">
      <text style="font-size: 10.5px; font-family: 'Latin Modern Math', 'SimSun'; text-anchor: end; fill: #64748b" x="530.989375" y="215.186887" transform="rotate(-0 530.989375 215.186887)">1,300</text>
     </g>
    </g>
    <g id="ytick_13">
     <g id="line2d_34">
      <path d="M 537.989375 175.70086 
L 931.109375 175.70086 
" clip-path="url(#p4768a75067)" style="fill: none; stroke: #dce5ef; stroke-opacity: 0.72; stroke-width: 0.8; stroke-linecap: square"/>
     </g>
     <g id="line2d_35">
      <g>
       <use xlink:href="#mfb72f0ba1c" x="537.989375" y="175.70086" style="fill: #64748b; stroke: #64748b; stroke-width: 0.8"/>
      </g>
     </g>
     <g id="text_25">
      <text style="font-size: 10.5px; font-family: 'Latin Modern Math', 'SimSun'; text-anchor: end; fill: #64748b" x="530.989375" y="179.344688" transform="rotate(-0 530.989375 179.344688)">1,350</text>
     </g>
    </g>
    <g id="ytick_14">
     <g id="line2d_36">
      <path d="M 537.989375 139.858661 
L 931.109375 139.858661 
" clip-path="url(#p4768a75067)" style="fill: none; stroke: #dce5ef; stroke-opacity: 0.72; stroke-width: 0.8; stroke-linecap: square"/>
     </g>
     <g id="line2d_37">
      <g>
       <use xlink:href="#mfb72f0ba1c" x="537.989375" y="139.858661" style="fill: #64748b; stroke: #64748b; stroke-width: 0.8"/>
      </g>
     </g>
     <g id="text_26">
      <text style="font-size: 10.5px; font-family: 'Latin Modern Math', 'SimSun'; text-anchor: end; fill: #64748b" x="530.989375" y="143.502489" transform="rotate(-0 530.989375 143.502489)">1,400</text>
     </g>
    </g>
    <g id="text_27">
     <text style="font-size: 10.5px; font-family: 'Latin Modern Math', 'SimSun'; text-anchor: middle; fill: #64748b" x="501.033047" y="232.632" transform="rotate(-90 501.033047 232.632)">未来 12 周运输损耗</text>
    </g>
   </g>
   <g id="line2d_38">
    <path d="M 565.101099 144.008471 
L 734.549375 213.985347 
L 903.997651 312.815193 
" clip-path="url(#p4768a75067)" style="fill: none; stroke: #2563eb; stroke-width: 2.5; stroke-linecap: square"/>
    <g clip-path="url(#p4768a75067)">
     <use xlink:href="#m6e24cf8971" x="565.101099" y="144.008471" style="fill: #2563eb; stroke: #ffffff; stroke-width: 1.2"/>
     <use xlink:href="#m6e24cf8971" x="734.549375" y="213.985347" style="fill: #2563eb; stroke: #ffffff; stroke-width: 1.2"/>
     <use xlink:href="#m6e24cf8971" x="903.997651" y="312.815193" style="fill: #2563eb; stroke: #ffffff; stroke-width: 1.2"/>
    </g>
   </g>
   <g id="line2d_39">
    <path d="M 565.101099 274.857587 
L 734.549375 166.784755 
L 903.997651 282.808104 
" clip-path="url(#p4768a75067)" style="fill: none; stroke: #0891b2; stroke-width: 2.5; stroke-linecap: square"/>
    <g clip-path="url(#p4768a75067)">
     <use xlink:href="#m6dd6ac9cab" x="565.101099" y="274.857587" style="fill: #0891b2; stroke: #ffffff; stroke-width: 1.2"/>
     <use xlink:href="#m6dd6ac9cab" x="734.549375" y="166.784755" style="fill: #0891b2; stroke: #ffffff; stroke-width: 1.2"/>
     <use xlink:href="#m6dd6ac9cab" x="903.997651" y="282.808104" style="fill: #0891b2; stroke: #ffffff; stroke-width: 1.2"/>
    </g>
   </g>
   <g id="line2d_40">
    <path d="M 565.101099 208.784644 
L 734.549375 258.853329 
" clip-path="url(#p4768a75067)" style="fill: none; stroke: #f59e0b; stroke-width: 2.5; stroke-linecap: square"/>
    <g clip-path="url(#p4768a75067)">
     <use xlink:href="#m0cc2e94d58" x="565.101099" y="208.784644" style="fill: #f59e0b; stroke: #ffffff; stroke-width: 1.2"/>
     <use xlink:href="#m0cc2e94d58" x="734.549375" y="258.853329" style="fill: #f59e0b; stroke: #ffffff; stroke-width: 1.2"/>
    </g>
   </g>
   <g id="patch_6">
    <path d="M 537.989375 353.16 
L 537.989375 112.104 
" style="fill: none; stroke: #dce5ef; stroke-width: 0.8; stroke-linejoin: miter; stroke-linecap: square"/>
   </g>
   <g id="patch_7">
    <path d="M 537.989375 353.16 
L 931.109375 353.16 
" style="fill: none; stroke: #dce5ef; stroke-width: 0.8; stroke-linejoin: miter; stroke-linecap: square"/>
   </g>
   <g id="text_28">
    <text style="font-weight: 600; font-size: 15px; font-family: 'Latin Modern Math', 'SimSun'; text-anchor: start; fill: #172033" x="537.989375" y="96.104" transform="rotate(-0 537.989375 96.104)">损耗改善通常降低累计运输损耗</text>
   </g>
   <g id="PathCollection_4">
    <g clip-path="url(#p4768a75067)">
     <use xlink:href="#madcb199968" x="734.549375" y="166.784755" style="fill: #ffffff; stroke: #e5484d; stroke-width: 1.6"/>
    </g>
   </g>
   <g id="PathCollection_5">
    <g clip-path="url(#p4768a75067)">
     <use xlink:href="#madcb199968" x="903.997651" y="282.808104" style="fill: #ffffff; stroke: #e5484d; stroke-width: 1.6"/>
    </g>
   </g>
   <g id="PathCollection_6">
    <g>
     <use xlink:href="#m9d32ef3827" x="903.997651" y="321.255529" style="fill: #e5484d; stroke: #e5484d; stroke-width: 1.8"/>
    </g>
   </g>
  </g>
  <g id="text_29">
   <text style="font-weight: 600; font-size: 20px; font-family: 'Latin Modern Math', 'SimSun'; text-anchor: start; fill: #172033" x="41.729375" y="21.75625" transform="rotate(-0 41.729375 21.75625)">不确定因素对第三题方案的交互影响</text>
  </g>
  <g id="text_30">
   <text style="font-size: 10.5px; font-family: 'Latin Modern Math', 'SimSun'; text-anchor: start; fill: #64748b" x="41.729375" y="51.84" transform="rotate(-0 41.729375 51.84)">每个情景独立优化；曲线比较参数变化对经济性与运输损耗的影响</text>
  </g>
  <g id="legend_1">
   <g id="line2d_41">
    <path d="M 46.319375 425.045344 
L 57.869375 425.045344 
L 69.419375 425.045344 
" style="fill: none; stroke: #2563eb; stroke-width: 2.5; stroke-linecap: square"/>
    <g>
     <use xlink:href="#m6e24cf8971" x="57.869375" y="425.045344" style="fill: #2563eb; stroke: #ffffff; stroke-width: 1.2"/>
    </g>
   </g>
   <g id="text_31">
    <text style="font-size: 10.5px; font-family: 'Latin Modern Math', 'SimSun'; text-anchor: start; fill: #172033" x="77.819375" y="428.720344" transform="rotate(-0 77.819375 428.720344)">供货偏差 -5%</text>
   </g>
   <g id="line2d_42">
    <path d="M 156.548047 425.045344 
L 168.098047 425.045344 
L 179.648047 425.045344 
" style="fill: none; stroke: #0891b2; stroke-width: 2.5; stroke-linecap: square"/>
    <g>
     <use xlink:href="#m6dd6ac9cab" x="168.098047" y="425.045344" style="fill: #0891b2; stroke: #ffffff; stroke-width: 1.2"/>
    </g>
   </g>
   <g id="text_32">
    <text style="font-size: 10.5px; font-family: 'Latin Modern Math', 'SimSun'; text-anchor: start; fill: #172033" x="188.048047" y="428.720344" transform="rotate(-0 188.048047 428.720344)">供货偏差 +0%</text>
   </g>
   <g id="line2d_43">
    <path d="M 271.449219 425.045344 
L 282.999219 425.045344 
L 294.549219 425.045344 
" style="fill: none; stroke: #f59e0b; stroke-width: 2.5; stroke-linecap: square"/>
    <g>
     <use xlink:href="#m0cc2e94d58" x="282.999219" y="425.045344" style="fill: #f59e0b; stroke: #ffffff; stroke-width: 1.2"/>
    </g>
   </g>
   <g id="text_33">
    <text style="font-size: 10.5px; font-family: 'Latin Modern Math', 'SimSun'; text-anchor: start; fill: #172033" x="302.949219" y="428.720344" transform="rotate(-0 302.949219 428.720344)">供货偏差 +5%</text>
   </g>
   <g id="line2d_44">
    <defs>
     <path id="mfc1ce9dfdf" d="M 0 3 
C 0.795609 3 1.55874 2.683901 2.12132 2.12132 
C 2.683901 1.55874 3 0.795609 3 0 
C 3 -0.795609 2.683901 -1.55874 2.12132 -2.12132 
C 1.55874 -2.683901 0.795609 -3 0 -3 
C -0.795609 -3 -1.55874 -2.683901 -2.12132 -2.12132 
C -2.683901 -1.55874 -3 -0.795609 -3 0 
C -3 0.795609 -2.683901 1.55874 -2.12132 2.12132 
C -1.55874 2.683901 -0.795609 3 0 3 
z
" style="stroke: #e5484d; stroke-width: 1.5"/>
    </defs>
    <g>
     <use xlink:href="#mfc1ce9dfdf" x="397.900391" y="425.045344" style="fill: #ffffff; stroke: #e5484d; stroke-width: 1.5"/>
    </g>
   </g>
   <g id="text_34">
    <text style="font-size: 10.5px; font-family: 'Latin Modern Math', 'SimSun'; text-anchor: start; fill: #172033" x="417.850391" y="428.720344" transform="rotate(-0 417.850391 428.720344)">未达到 5% Gap</text>
   </g>
   <g id="line2d_45">
    <defs>
     <path id="m91c382a5ca" d="M -3 3 
L 3 -3 
M -3 -3 
L 3 3 
" style="stroke: #e5484d; stroke-width: 1.8"/>
    </defs>
    <g>
     <use xlink:href="#m91c382a5ca" x="516.949062" y="425.045344" style="fill: #e5484d; stroke: #e5484d; stroke-width: 1.8"/>
    </g>
   </g>
   <g id="text_35">
    <text style="font-size: 10.5px; font-family: 'Latin Modern Math', 'SimSun'; text-anchor: start; fill: #172033" x="536.899062" y="428.720344" transform="rotate(-0 536.899062 428.720344)">限时未完成</text>
   </g>
  </g>
 </g>
 <defs>
  <clipPath id="pfbcfbb321f">
   <rect x="46.589375" y="112.104" width="393.12" height="241.056"/>
  </clipPath>
  <clipPath id="p4768a75067">
   <rect x="537.989375" y="112.104" width="393.12" height="241.056"/>
  </clipPath>
 </defs>
</svg>
